<svg width="24" height="27" viewBox="0 0 24 27" fill="none" xmlns="http://www.w3.org/2000/svg">
<path d="M12 25.5707V14.5707M12 25.5707L1.94 19.2832C1.48048 18.996 1.25072 18.8524 1.12536 18.6263C1 18.4001 1 18.1291 1 17.5872V7.69574M12 25.5707L17.5 22.1332L22.06 19.2832C22.5195 18.996 22.7493 18.8524 22.8746 18.6263C23 18.4001 23 18.1291 23 17.5872V7.69574M12 14.5707L1 7.69574M12 14.5707L23 7.69574M1 7.69574L10.94 1.48324C11.4555 1.16107 11.7132 0.999987 12 0.999987C12.2868 0.999987 12.5445 1.16107 13.06 1.48324L23 7.69574" stroke="#234875" stroke-width="2" stroke-linejoin="round"/>
</svg>
